M48
;DRILL file {KiCad (5.0.2)-1} date 07/03/2019 23:56:50
;FORMAT={-:-/ absolute / metric / decimal}
FMAT,2
METRIC,TZ
T1C0.500
T2C0.700
T3C0.800
T4C0.900
T5C1.000
T6C1.016
T7C1.100
T8C1.320
T9C6.400
%
G90
G05
T1
X105.25Y-105.
X114.5Y-123.
X118.Y-82.
X118.Y-84.5
X118.Y-87.
X118.Y-89.5
X118.Y-125.
X118.Y-128.
X118.Y-130.
X122.25Y-100.75
X143.Y-125.25
X143.Y-127.75
X143.Y-130.5
X143.Y-133.
X176.Y-83.
X177.Y-80.
X188.3Y-109.7
X188.3Y-111.2
X190.8Y-111.2
X190.8Y-109.6
T2
X102.Y-91.
X102.Y-105.
X102.Y-121.
X102.Y-135.
X102.Y-148.
X103.5Y-104.
X103.5Y-107.75
X103.5Y-116.
X107.75Y-120.25
X111.75Y-120.25
X112.712Y-80.75
X114.712Y-78.75
X115.5Y-96.
X115.5Y-99.
X115.5Y-142.5
X116.Y-130.
X117.Y-100.5
X117.Y-110.
X117.Y-115.
X117.071Y-142.5
X117.775Y-69.
X117.775Y-71.25
X117.775Y-73.5
X117.775Y-75.687
X117.907Y-132.804
X118.Y-107.
X119.768Y-142.5
X120.Y-105.
X120.Y-145.
X121.75Y-137.5
X122.Y-92.2
X122.4Y-87.
X122.4Y-89.4
X122.5Y-107.
X122.6Y-82.
X122.6Y-84.33
X122.95Y-115.5
X122.95Y-119.
X122.95Y-122.
X124.07Y-135.
X124.13Y-125.
X124.13Y-127.8
X124.13Y-130.264
X124.13Y-132.804
X124.75Y-102.
X126.Y-111.
X126.Y-115.5
X126.Y-118.75
X126.Y-121.71
X127.813Y-102.
X128.Y-84.4
X128.Y-128.
X129.563Y-100.25
X129.75Y-126.5
X131.Y-127.87
X131.04Y-98.773
X133.1Y-99.75
X133.1Y-103.75
X133.1Y-107.5
X133.1Y-111.
X133.1Y-114.75
X133.1Y-118.25
X133.1Y-121.75
X138.Y-91.
X138.Y-105.
X138.Y-119.5
X138.Y-134.
X138.Y-145.
X143.8Y-81.8
X143.8Y-84.2
X143.8Y-86.8
X143.8Y-89.4
X153.Y-134.
X154.Y-128.92
X160.4Y-134.8
X161.Y-124.697
X161.75Y-127.75
X163.2Y-134.6
X169.Y-92.55
X169.Y-95.25
X169.6Y-68.
X171.031Y-78.15
X172.Y-75.
X174.2Y-116.6
X174.2Y-120.8
X174.25Y-128.5
X174.25Y-132.5
X174.933Y-57.933
X176.493Y-118.578
X176.5Y-130.275
X177.Y-60.
X178.69Y-128.
X178.8Y-116.4
X178.8Y-120.8
X179.Y-132.5
X180.63Y-116.09
X181.5Y-117.25
X182.Y-124.69
X184.Y-144.
X184.25Y-139.75
X186.5Y-141.75
X189.Y-139.6
X189.Y-144.
X190.Y-119.675
X190.Y-124.825
X191.35Y-117.027
X198.053Y-119.474
X198.75Y-104.75
X165.796Y-99.825
X165.796Y-104.905
X173.296Y-99.825
X173.296Y-104.905
X177.46Y-71.25
X180.Y-71.25
X177.046Y-99.825
X177.046Y-104.905
X156.987Y-117.892
X156.987Y-122.972
X169.796Y-99.825
X169.796Y-104.905
X177.5Y-83.36
X180.04Y-83.36
X153.237Y-117.892
X153.237Y-122.972
T3
X167.Y-140.75
X167.Y-144.55
X165.25Y-110.25
X169.05Y-110.25
X165.Y-81.5
X165.Y-84.04
X165.Y-86.58
X165.Y-89.12
X172.62Y-81.5
X172.62Y-84.04
X172.62Y-86.58
X172.62Y-89.12
X174.Y-110.25
X177.8Y-110.25
X127.Y-64.38
X127.Y-72.
X132.08Y-64.38
X132.08Y-72.
X156.2Y-54.25
X156.2Y-93.9
X173.55Y-54.25
X173.55Y-93.9
X150.15Y-100.75
X150.15Y-115.75
X159.35Y-100.75
X159.35Y-115.75
X156.1Y-51.2
X156.1Y-76.8
X169.9Y-51.2
X169.9Y-76.8
X120.Y-60.
X122.05Y-52.5
T4
X128.5Y-142.5
X131.04Y-142.5
X128.5Y-112.5
X131.04Y-112.5
X128.5Y-97.5
X131.04Y-97.5
X128.5Y-78.
X131.04Y-78.
T5
X115.5Y-92.
X132.75Y-127.5
X132.75Y-132.5
X115.5Y-137.
X126.2Y-125.27
X126.2Y-127.87
X126.2Y-130.27
X126.2Y-132.87
X157.25Y-140.25
X157.25Y-145.25
X150.8Y-125.27
X150.8Y-127.87
X150.8Y-130.27
X150.8Y-132.87
X150.8Y-81.73
X150.8Y-84.33
X150.8Y-86.73
X150.8Y-89.33
X157.25Y-126.75
X157.25Y-131.75
X115.5Y-107.
X115.5Y-122.
X132.75Y-82.5
X132.75Y-87.5
X126.2Y-81.8
X126.2Y-84.4
X126.2Y-86.8
X126.2Y-89.4
T6
X194.Y-115.72
X194.Y-118.26
X194.Y-120.8
X194.Y-123.34
X194.Y-125.88
X194.Y-128.42
X194.Y-130.96
X194.Y-133.5
X196.54Y-115.72
X196.54Y-118.26
X196.54Y-120.8
X196.54Y-123.34
X196.54Y-125.88
X196.54Y-128.42
X196.54Y-130.96
X196.54Y-133.5
X184.Y-94.34
X184.Y-96.88
X184.Y-99.42
X184.Y-101.96
X184.Y-104.5
X186.54Y-94.34
X186.54Y-96.88
X186.54Y-99.42
X186.54Y-101.96
X186.54Y-104.5
X184.Y-115.72
X184.Y-118.26
X184.Y-120.8
X184.Y-123.34
X184.Y-125.88
X184.Y-128.42
X184.Y-130.96
X184.Y-133.5
X186.54Y-115.72
X186.54Y-118.26
X186.54Y-120.8
X186.54Y-123.34
X186.54Y-125.88
X186.54Y-128.42
X186.54Y-130.96
X186.54Y-133.5
X194.Y-94.34
X194.Y-96.88
X194.Y-99.42
X194.Y-101.96
X194.Y-104.5
X196.54Y-94.34
X196.54Y-96.88
X196.54Y-99.42
X196.54Y-101.96
X196.54Y-104.5
T7
X182.75Y-81.75
X182.75Y-84.29
X182.75Y-86.83
X166.Y-127.75
X166.Y-130.29
X166.Y-132.83
X184.75Y-68.17
X184.75Y-70.71
X184.75Y-73.25
X175.75Y-139.5
X175.75Y-142.04
X175.75Y-144.58
X166.Y-116.
X166.Y-118.54
X166.Y-121.08
X161.25Y-67.
X163.79Y-67.
X166.33Y-67.
T8
X194.5Y-75.
X194.5Y-80.
X194.5Y-85.
X194.5Y-142.
X194.5Y-147.
X194.5Y-53.
X194.5Y-58.
X194.5Y-63.
T9
X110.Y-97.5
X110.Y-112.5
X110.Y-142.5
X110.Y-127.5
T5
X125.5Y-54.15G85X125.5Y-52.65
G05
X130.65Y-54.4G85X129.35Y-54.4
G05
X131.Y-60.4G85X129.Y-60.4
G05
X134.5Y-54.15G85X134.5Y-52.65
G05
X105.5Y-54.15G85X105.5Y-52.65
G05
X110.65Y-54.4G85X109.35Y-54.4
G05
X111.Y-60.4G85X109.Y-60.4
G05
X114.5Y-54.15G85X114.5Y-52.65
G05
X109.35Y-73.3G85X110.65Y-73.3
G05
X109.35Y-78.G85X110.65Y-78.
G05
X109.35Y-82.7G85X110.65Y-82.7
G05
T0
M30
